<svg width="31" height="30" viewBox="0 0 31 30" fill="none" xmlns="http://www.w3.org/2000/svg">
<g clip-path="url(#clip0_80_673)">
<path d="M5.72145 22.033C5.91606 22.226 6.0652 22.4591 6.15821 22.7155C6.25123 22.972 6.28583 23.2456 6.25957 23.5168C6.12779 24.772 5.87796 26.0123 5.51332 27.2217C8.12895 26.6234 9.72645 25.9305 10.4521 25.5675C10.8636 25.3615 11.3376 25.3127 11.7833 25.4304C13.061 25.7669 14.3779 25.9363 15.7002 25.9342C23.1927 25.9342 28.8252 20.7345 28.8252 14.8196C28.8252 8.90663 23.1927 3.70498 15.7002 3.70498C8.2077 3.70498 2.5752 8.90663 2.5752 14.8196C2.5752 17.539 3.73207 20.062 5.72145 22.033ZM4.79707 29.2668C4.35282 29.3538 3.90714 29.4335 3.4602 29.5058C3.0852 29.565 2.8002 29.1797 2.94832 28.8352C3.1148 28.4473 3.2674 28.0537 3.40582 27.6552L3.41145 27.6366C3.87645 26.3029 4.2552 24.7691 4.39395 23.3408C2.09332 21.0623 0.700195 18.0799 0.700195 14.8196C0.700195 7.65808 7.41644 1.85254 15.7002 1.85254C23.9839 1.85254 30.7002 7.65808 30.7002 14.8196C30.7002 21.9811 23.9839 27.7867 15.7002 27.7867C14.2145 27.7887 12.735 27.5981 11.2996 27.2198C10.3246 27.707 8.22645 28.5944 4.79707 29.2668Z" fill="black"/>
</g>
<defs>
<clipPath id="clip0_80_673">
<rect width="30" height="29.639" fill="white" transform="translate(0.700195)"/>
</clipPath>
</defs>
</svg>
