<svg width="30" height="31" viewBox="0 0 30 31" fill="none" xmlns="http://www.w3.org/2000/svg">
<path d="M23.75 17.4956C23.75 16.6439 24.0907 15.8717 24.6432 15.3081H16.25C15.0419 15.3081 14.0625 14.3287 14.0625 13.1206V3.12463C7.64856 3.29032 2.5 8.54171 2.5 14.9956C2.5 21.3444 7.48215 26.5294 13.75 26.8544V24.9956C13.75 23.2697 15.1491 21.8706 16.875 21.8706C17.5785 21.8706 18.2277 22.1031 18.75 22.4954V21.2456C18.75 19.5197 20.1491 18.1206 21.875 18.1206C22.5785 18.1206 23.2278 18.3531 23.75 18.7454V17.4956ZM15.9375 3.22247V13.1206C15.9375 13.2932 16.0774 13.4331 16.25 13.4331H26.1481C25.4504 8.12447 21.2461 3.92022 15.9375 3.22247ZM26.875 15.621C25.8395 15.621 25 16.4604 25 17.496V27.496C25 28.5315 25.8395 29.371 26.875 29.371C27.9105 29.371 28.75 28.5315 28.75 27.496V17.496C28.75 16.4604 27.9105 15.621 26.875 15.621ZM16.875 23.121C15.8395 23.121 15 23.9605 15 24.996V27.496C15 28.5315 15.8395 29.371 16.875 29.371C17.9105 29.371 18.75 28.5315 18.75 27.496V24.996C18.75 23.9605 17.9105 23.121 16.875 23.121ZM20 21.246C20 20.2104 20.8395 19.371 21.875 19.371C22.9105 19.371 23.75 20.2104 23.75 21.246V27.496C23.75 28.5315 22.9105 29.371 21.875 29.371C20.8395 29.371 20 28.5315 20 27.496V21.246Z" fill="#212121"/>
</svg>
