<svg width="20" height="21" viewBox="0 0 20 21" fill="none" xmlns="http://www.w3.org/2000/svg">
<path d="M18.125 15.9317C17.95 15.9315 17.777 15.8947 17.6172 15.8235C17.58 15.807 17.5445 15.7868 17.5113 15.7633L14.2805 13.4891C14.1166 13.3738 13.9829 13.2207 13.8906 13.0429C13.7983 12.865 13.75 12.6676 13.75 12.4672V9.36566C13.75 9.16528 13.7983 8.96785 13.8906 8.79001C13.9829 8.61217 14.1166 8.45913 14.2805 8.34378L17.5113 6.06957C17.5445 6.04607 17.58 6.02592 17.6172 6.00941C17.8075 5.9248 18.0159 5.88908 18.2236 5.9055C18.4312 5.92193 18.6314 5.98997 18.8061 6.10345C18.9807 6.21693 19.1242 6.37225 19.2236 6.5553C19.323 6.73835 19.375 6.94332 19.375 7.1516V14.6813C19.375 15.0128 19.2433 15.3307 19.0089 15.5652C18.7745 15.7996 18.4565 15.9313 18.125 15.9313V15.9317Z" fill="white"/>
<path d="M10.4688 16.5414H3.28125C2.57699 16.5407 1.90178 16.2606 1.4038 15.7626C0.90581 15.2646 0.625724 14.5894 0.625 13.8851V7.94763C0.625724 7.24337 0.90581 6.56817 1.4038 6.07018C1.90178 5.57219 2.57699 5.29211 3.28125 5.29138H10.4875C11.1868 5.29221 11.8571 5.57035 12.3516 6.0648C12.846 6.55925 13.1242 7.22963 13.125 7.92888V13.8851C13.1243 14.5894 12.8442 15.2646 12.3462 15.7626C11.8482 16.2606 11.173 16.5407 10.4688 16.5414Z" fill="white"/>
</svg>
