<svg width="18" height="19" viewBox="0 0 18 19" fill="none" xmlns="http://www.w3.org/2000/svg">
<path d="M1.80005 5.89998C1.80005 4.90586 2.60594 4.09998 3.60005 4.09998H9.00005C9.99419 4.09998 10.8 4.90586 10.8 5.89998V13.1C10.8 14.0941 9.99419 14.9 9.00005 14.9H3.60005C2.60594 14.9 1.80005 14.0941 1.80005 13.1V5.89998Z" fill="#374151"/>
<path d="M13.0976 6.89504C12.7927 7.0475 12.6001 7.35913 12.6001 7.70003V11.3C12.6001 11.6409 12.7927 11.9525 13.0976 12.105L14.8976 13.005C15.1766 13.1445 15.5079 13.1296 15.7732 12.9657C16.0385 12.8016 16.2001 12.512 16.2001 12.2V6.80003C16.2001 6.4881 16.0385 6.19843 15.7732 6.03444C15.5079 5.87045 15.1766 5.85555 14.8976 5.99504L13.0976 6.89504Z" fill="#374151"/>
</svg>
