<svg width="18" height="18" viewBox="0 0 18 18" fill="none" xmlns="http://www.w3.org/2000/svg">
<path d="M3.32938 15V10.5C3.32938 8.9087 3.92791 7.38258 4.99331 6.25736C6.05871 5.13214 7.5037 4.5 9.01039 4.5C10.5171 4.5 11.9621 5.13214 13.0275 6.25736C14.0929 7.38258 14.6914 8.9087 14.6914 10.5V15H15.4015V16.5H2.61925V15H3.32938ZM4.74963 15H13.2712V10.5C13.2712 9.30653 12.8223 8.16193 12.0232 7.31802C11.2242 6.47411 10.1404 6 9.01039 6C7.88037 6 6.79663 6.47411 5.99758 7.31802C5.19853 8.16193 4.74963 9.30653 4.74963 10.5V15ZM8.30027 1.5H9.72052V3.75H8.30027V1.5ZM14.5338 3.606L15.5379 4.6665L14.0324 6.25725L13.0276 5.19675L14.5338 3.606ZM2.48291 4.6665L3.48703 3.606L4.99321 5.196L3.9898 6.258L2.48291 4.6665ZM5.45976 10.5C5.45976 9.50544 5.83384 8.55161 6.49972 7.84835C7.16559 7.14509 8.06871 6.75 9.01039 6.75V8.25C8.44538 8.25 7.90351 8.48705 7.50399 8.90901C7.10446 9.33097 6.88001 9.90326 6.88001 10.5H5.45976Z" fill="#EA462F"/>
</svg>
