<svg width="25" height="25" viewBox="0 0 25 25" fill="none" xmlns="http://www.w3.org/2000/svg">
<path d="M12.5001 2.24805C18.0238 2.24805 22.5016 6.72589 22.5016 12.2496C22.5016 17.7733 18.0238 22.2511 12.5001 22.2511C6.97638 22.2511 2.49854 17.7733 2.49854 12.2496C2.49854 6.72589 6.97638 2.24805 12.5001 2.24805ZM12.4963 10.4986C11.9834 10.499 11.561 10.8853 11.5036 11.3827L11.4969 11.4993L11.5005 17.0009L11.5073 17.1175C11.5654 17.6148 11.9884 18.0006 12.5012 18.0002C13.014 17.9999 13.4364 17.6136 13.4939 17.1162L13.5005 16.9996L13.4969 11.498L13.4901 11.3814C13.432 10.8841 13.0091 10.4983 12.4963 10.4986ZM12.5005 6.74908C11.8093 6.74908 11.249 7.3094 11.249 8.0006C11.249 8.6918 11.8093 9.25212 12.5005 9.25212C13.1917 9.25212 13.7521 8.6918 13.7521 8.0006C13.7521 7.3094 13.1917 6.74908 12.5005 6.74908Z" fill="#212121"/>
</svg>
