<svg width="30" height="32" viewBox="0 0 30 32" fill="none" xmlns="http://www.w3.org/2000/svg">
<path d="M15.3258 7.48494C15.2385 7.39871 15.1225 7.35059 15.0018 7.35059C14.881 7.35059 14.765 7.39871 14.6777 7.48494L3.89063 18.1333C3.84481 18.1786 3.80837 18.233 3.78349 18.2933C3.75862 18.3535 3.74583 18.4184 3.7459 18.4839L3.74414 28.4778C3.74414 28.9916 3.94168 29.4844 4.29332 29.8478C4.64495 30.2111 5.12186 30.4153 5.61914 30.4153H11.25C11.4986 30.4153 11.7371 30.3132 11.9129 30.1315C12.0887 29.9498 12.1875 29.7034 12.1875 29.4465V21.2121C12.1875 21.0837 12.2369 20.9605 12.3248 20.8696C12.4127 20.7788 12.5319 20.7278 12.6563 20.7278H17.3438C17.4681 20.7278 17.5873 20.7788 17.6752 20.8696C17.7631 20.9605 17.8125 21.0837 17.8125 21.2121V29.4465C17.8125 29.7034 17.9113 29.9498 18.0871 30.1315C18.2629 30.3132 18.5014 30.4153 18.75 30.4153H24.3785C24.8758 30.4153 25.3527 30.2111 25.7043 29.8478C26.056 29.4844 26.2535 28.9916 26.2535 28.4778V18.4839C26.2536 18.4184 26.2408 18.3535 26.2159 18.2933C26.1911 18.233 26.1546 18.1786 26.1088 18.1333L15.3258 7.48494Z" fill="black"/>
<path d="M28.7643 15.6629L24.3815 11.3302V4.75537C24.3815 4.49844 24.2827 4.25204 24.1069 4.07036C23.9311 3.88869 23.6926 3.78662 23.444 3.78662H20.6315C20.3828 3.78662 20.1444 3.88869 19.9686 4.07036C19.7927 4.25204 19.694 4.49844 19.694 4.75537V6.69287L16.3002 3.33979C15.9826 3.00799 15.5104 2.81787 15 2.81787C14.4914 2.81787 14.0203 3.00799 13.7028 3.34039L1.23987 15.6617C0.875413 16.025 0.82971 16.6226 1.16135 17.0161C1.24463 17.1155 1.3466 17.1962 1.46106 17.2536C1.57551 17.3109 1.70006 17.3435 1.82712 17.3495C1.95417 17.3556 2.08109 17.3348 2.20013 17.2885C2.31917 17.2422 2.42785 17.1714 2.51955 17.0803L14.6778 5.07506C14.765 4.98883 14.8811 4.9407 15.0018 4.9407C15.1225 4.9407 15.2386 4.98883 15.3258 5.07506L27.4852 17.0803C27.6643 17.2578 27.9042 17.3547 28.1523 17.3497C28.4004 17.3447 28.6365 17.2382 28.8088 17.0537C29.1686 16.6686 29.1387 16.0328 28.7643 15.6629Z" fill="black"/>
</svg>
