<svg width="30" height="31" viewBox="0 0 30 31" fill="none" xmlns="http://www.w3.org/2000/svg">
<path d="M15.3258 6.60457C15.2385 6.51834 15.1225 6.47021 15.0018 6.47021C14.881 6.47021 14.765 6.51834 14.6777 6.60457L3.89063 17.253C3.84481 17.2982 3.80837 17.3527 3.78349 17.4129C3.75862 17.4732 3.74583 17.538 3.7459 17.6035L3.74414 27.5974C3.74414 28.1112 3.94168 28.6041 4.29332 28.9674C4.64495 29.3308 5.12186 29.5349 5.61914 29.5349H11.25C11.4986 29.5349 11.7371 29.4328 11.9129 29.2511C12.0887 29.0695 12.1875 28.8231 12.1875 28.5661V20.3318C12.1875 20.2033 12.2369 20.0801 12.3248 19.9893C12.4127 19.8984 12.5319 19.8474 12.6563 19.8474H17.3438C17.4681 19.8474 17.5873 19.8984 17.6752 19.9893C17.7631 20.0801 17.8125 20.2033 17.8125 20.3318V28.5661C17.8125 28.8231 17.9113 29.0695 18.0871 29.2511C18.2629 29.4328 18.5014 29.5349 18.75 29.5349H24.3785C24.8758 29.5349 25.3527 29.3308 25.7043 28.9674C26.056 28.6041 26.2535 28.1112 26.2535 27.5974V17.6035C26.2536 17.538 26.2408 17.4732 26.2159 17.4129C26.1911 17.3527 26.1546 17.2982 26.1088 17.253L15.3258 6.60457Z" fill="black"/>
<path d="M28.7643 14.7825L24.3815 10.4498V3.875C24.3815 3.61807 24.2827 3.37167 24.1069 3.18999C23.9311 3.00831 23.6926 2.90625 23.444 2.90625H20.6315C20.3828 2.90625 20.1444 3.00831 19.9686 3.18999C19.7927 3.37167 19.694 3.61807 19.694 3.875V5.8125L16.3002 2.45941C15.9826 2.12762 15.5104 1.9375 15 1.9375C14.4914 1.9375 14.0203 2.12762 13.7028 2.46002L1.23987 14.7813C0.875413 15.1446 0.82971 15.7422 1.16135 16.1357C1.24463 16.2351 1.3466 16.3159 1.46106 16.3732C1.57551 16.4305 1.70006 16.4632 1.82712 16.4692C1.95417 16.4752 2.08109 16.4544 2.20013 16.4081C2.31917 16.3618 2.42785 16.291 2.51955 16.1999L14.6778 4.19469C14.765 4.10846 14.8811 4.06033 15.0018 4.06033C15.1225 4.06033 15.2386 4.10846 15.3258 4.19469L27.4852 16.1999C27.6643 16.3774 27.9042 16.4743 28.1523 16.4693C28.4004 16.4643 28.6365 16.3578 28.8088 16.1733C29.1686 15.7882 29.1387 15.1525 28.7643 14.7825Z" fill="black"/>
</svg>
