<svg width="22" height="28" viewBox="0 0 22 28" fill="none" xmlns="http://www.w3.org/2000/svg">
<path d="M10.8474 16.4106C11.9707 16.4106 12.8813 15.2505 12.8813 13.8194C12.8813 12.3884 11.9707 11.2283 10.8474 11.2283C9.7241 11.2283 8.81348 12.3884 8.81348 13.8194C8.81348 15.2505 9.7241 16.4106 10.8474 16.4106Z" fill="black"/>
<path d="M19.3613 16.5654L19.3414 16.5448L18.0041 15.2088C17.9194 15.1234 17.8518 15.0137 17.8069 14.8886C17.7619 14.7635 17.7409 14.6266 17.7456 14.4892V13.8652C17.7413 13.7286 17.7626 13.5927 17.8076 13.4686C17.8526 13.3446 17.9201 13.2359 18.0045 13.1515L19.3414 11.8149L19.3613 11.7944C19.5675 11.5756 19.7058 11.2705 19.7516 10.9336C19.7974 10.5968 19.7477 10.2502 19.6113 9.95575L17.8015 5.96645C17.7994 5.96268 17.7976 5.95871 17.796 5.95457C17.6589 5.66423 17.4463 5.44425 17.1951 5.33282C16.9439 5.22138 16.67 5.22554 16.421 5.34457L16.4062 5.35159L14.8341 6.15754C14.7349 6.20865 14.6275 6.22899 14.5209 6.21688C14.4143 6.20478 14.3115 6.16057 14.221 6.08791C14.082 5.97634 13.9407 5.8709 13.7972 5.77157C13.7042 5.70729 13.6243 5.61606 13.564 5.50522C13.5037 5.39439 13.4647 5.26706 13.4502 5.1335L13.2133 2.99633L13.2082 2.95746C13.1567 2.62644 13.0172 2.32812 12.8134 2.11264C12.6095 1.89715 12.3536 1.77763 12.0887 1.77417H8.46494C8.19632 1.77526 7.93662 1.8971 7.7316 2.1182C7.52657 2.33931 7.38937 2.6455 7.34417 2.98284L7.34035 3.01307L7.10433 5.15455C7.08985 5.28773 7.05117 5.41476 6.99136 5.52553C6.93156 5.6363 6.85228 5.72776 6.75984 5.79262C6.61591 5.89138 6.47459 5.99616 6.3361 6.1068C6.2457 6.17902 6.14315 6.22289 6.03685 6.23481C5.93056 6.24673 5.82356 6.22635 5.72465 6.17536L4.15133 5.36562L4.13649 5.35806C3.88711 5.23891 3.61283 5.23491 3.36137 5.34675C3.10991 5.4586 2.89718 5.67922 2.7602 5.97022L2.7547 5.9821L0.942382 9.9741C0.805783 10.2688 0.755926 10.6158 0.801728 10.9531C0.84753 11.2903 0.986004 11.5958 1.19239 11.8149L1.2123 11.8354L2.54961 13.1715C2.6343 13.2568 2.70188 13.3666 2.74682 13.4916C2.79175 13.6167 2.81275 13.7536 2.80809 13.8911V14.5151C2.81233 14.6517 2.79107 14.7876 2.74607 14.9116C2.70106 15.0357 2.63358 15.1444 2.54918 15.2288L1.2123 16.5654L1.19239 16.5859C0.986208 16.8047 0.847847 17.1098 0.802045 17.4466C0.756244 17.7835 0.805988 18.1301 0.942382 18.4245L2.75215 22.4138C2.75424 22.4176 2.75608 22.4215 2.75766 22.4257C2.89479 22.716 3.10741 22.936 3.35859 23.0474C3.60977 23.1589 3.88366 23.1547 4.13268 23.0357L4.14751 23.0287L5.7183 22.2227C5.81752 22.1716 5.92485 22.1513 6.03146 22.1634C6.13806 22.1755 6.24088 22.2197 6.33144 22.2924C6.47043 22.4043 6.61167 22.5097 6.75518 22.6087C6.84822 22.673 6.9281 22.7642 6.98838 22.875C7.04866 22.9859 7.08766 23.1132 7.10221 23.2468L7.33781 25.3839L7.3429 25.4228C7.39455 25.7544 7.53436 26.0531 7.73875 26.2686C7.94314 26.4842 8.19962 26.6034 8.46494 26.6061H12.0887C12.3573 26.605 12.617 26.4832 12.8221 26.2621C13.0271 26.041 13.1643 25.7348 13.2095 25.3974L13.2133 25.3672L13.4493 23.2257C13.464 23.0923 13.503 22.9651 13.5632 22.8543C13.6234 22.7435 13.7031 22.6522 13.796 22.5876C13.9409 22.4883 14.0824 22.383 14.2197 22.2735C14.3101 22.2012 14.4126 22.1574 14.5189 22.1455C14.6252 22.1335 14.7322 22.1539 14.8311 22.2049L16.4045 23.0119L16.4193 23.0195C16.6687 23.1389 16.943 23.143 17.1945 23.0311C17.446 22.9192 17.6587 22.6985 17.7956 22.4073C17.7973 22.4033 17.7991 22.3993 17.8011 22.3955L19.6109 18.4067C19.7477 18.112 19.7978 17.7649 19.752 17.4275C19.7063 17.0901 19.5678 16.7845 19.3613 16.5654ZM13.6629 14.3931C13.632 15.2291 13.4112 16.0356 13.0272 16.7146C12.6432 17.3936 12.1126 17.9159 11.5 18.2179C10.8873 18.5199 10.219 18.5886 9.57627 18.4156C8.93354 18.2427 8.34409 17.8356 7.87961 17.2438C7.41514 16.652 7.09564 15.901 6.95997 15.0821C6.8243 14.2633 6.8783 13.4119 7.11542 12.6314C7.35254 11.851 7.76255 11.1751 8.29559 10.686C8.82863 10.1969 9.46174 9.9156 10.1179 9.87639C10.589 9.84997 11.0593 9.94872 11.4988 10.1664C11.9383 10.384 12.3375 10.7158 12.6709 11.1406C13.0043 11.5654 13.2647 12.074 13.4355 12.6339C13.6062 13.1939 13.6837 13.793 13.6629 14.3931Z" fill="black"/>
</svg>
