<svg width="24" height="25" viewBox="0 0 24 25" fill="none" xmlns="http://www.w3.org/2000/svg">
<path d="M9.00009 2.27283C8.52964 2.27283 8.0693 2.31934 7.62366 2.40825C7.32497 2.46784 7.09198 2.70215 7.03408 3.00118L6.67421 4.85964C6.6453 5.00892 6.49094 5.09805 6.34721 5.04844L4.55651 4.43043C4.26924 4.33128 3.95053 4.41529 3.74946 4.64316C3.14139 5.33227 2.66642 6.14271 2.36568 7.03422C2.26844 7.32248 2.35496 7.64093 2.58471 7.84035L4.01727 9.08379C4.1321 9.18346 4.1321 9.36171 4.01727 9.46139L2.58458 10.7049C2.35485 10.9043 2.26832 11.2227 2.36553 11.511C2.6662 12.4025 3.1411 13.2129 3.74909 13.9021C3.95016 14.13 4.26889 14.214 4.55618 14.1148L6.34721 13.4967C6.49094 13.4471 6.6453 13.5362 6.67421 13.6855L7.03417 15.5445C7.09208 15.8435 7.32507 16.0778 7.62377 16.1374C8.06938 16.2263 8.52968 16.2728 9.00009 16.2728C9.47379 16.2728 9.93723 16.2256 10.3857 16.1355C10.684 16.0756 10.9165 15.8415 10.9743 15.5428L11.334 13.6855C11.3629 13.5362 11.5172 13.4471 11.661 13.4967L13.4459 14.1127C13.7333 14.2119 14.0521 14.1278 14.2532 13.8997C14.8615 13.2095 15.3365 12.3978 15.6367 11.505C15.7336 11.2169 15.647 10.8988 15.4174 10.6995L13.9909 9.46138C13.8761 9.36171 13.8761 9.18346 13.9909 9.08379L15.4173 7.84572C15.6468 7.64647 15.7334 7.32836 15.6365 7.04024C15.3363 6.14738 14.8613 5.33568 14.2528 4.64553C14.0518 4.41748 13.7329 4.33336 13.4455 4.43254L11.661 5.04844C11.5172 5.09805 11.3629 5.00892 11.334 4.85965L10.9744 3.00284C10.9166 2.70419 10.6841 2.47004 10.3859 2.41012C9.93731 2.31999 9.47383 2.27283 9.00009 2.27283ZM7.25101 9.27285C7.25101 8.30644 8.03448 7.52295 9.00101 7.52295C9.96754 7.52295 10.751 8.30644 10.751 9.27285C10.751 10.2393 9.96754 11.0227 9.00101 11.0227C8.03448 11.0227 7.25101 10.2393 7.25101 9.27285ZM13.4119 15.0566C13.5343 14.8951 13.749 14.8406 13.9405 14.9067L15.2 15.3414C15.4613 15.4316 15.742 15.2696 15.7945 14.9982L16.0479 13.6898C16.0864 13.4906 16.2413 13.3318 16.4427 13.307C16.6253 13.2844 16.8113 13.2728 17 13.2728C17.1887 13.2728 17.3746 13.2844 17.5572 13.307C17.7586 13.3318 17.9135 13.4906 17.9521 13.6898L18.2054 14.9982C18.258 15.2696 18.5386 15.4316 18.8 15.3414L20.0594 14.9067C20.251 14.8406 20.4656 14.8951 20.588 15.0566C20.8121 15.3521 21.0004 15.6761 21.1467 16.0223C21.2257 16.209 21.1656 16.4223 21.0125 16.5552L20.0054 17.4293C19.7966 17.6106 19.7966 17.9346 20.0054 18.1159L21.0126 18.9902C21.1657 19.123 21.2258 19.3363 21.1469 19.523C21.0006 19.8691 20.8123 20.1931 20.5883 20.4886C20.4659 20.6501 20.2512 20.7047 20.0596 20.6386L18.8 20.2038C18.5386 20.1136 18.258 20.2756 18.2054 20.547L17.952 21.8558C17.9134 22.055 17.7585 22.2138 17.5571 22.2386C17.3746 22.2612 17.1886 22.2728 17 22.2728C16.8113 22.2728 16.6254 22.2612 16.4428 22.2386C16.2414 22.2138 16.0865 22.055 16.0479 21.8558L15.7945 20.547C15.742 20.2756 15.4613 20.1136 15.2 20.2038L13.9403 20.6386C13.7487 20.7047 13.5341 20.6501 13.4117 20.4886C13.1877 20.1931 12.9993 19.8691 12.8531 19.523C12.7742 19.3363 12.8343 19.123 12.9874 18.9901L13.9946 18.1159C14.2033 17.9346 14.2033 17.6106 13.9946 17.4293L12.9875 16.5552C12.8344 16.4223 12.7743 16.209 12.8532 16.0223C12.9995 15.6762 13.1879 15.3521 13.4119 15.0566ZM18.2503 17.7728C18.2503 17.0822 17.6904 16.5223 16.9998 16.5223C16.3091 16.5223 15.7492 17.0822 15.7492 17.7728C15.7492 18.4635 16.3091 19.0234 16.9998 19.0234C17.6904 19.0234 18.2503 18.4635 18.2503 17.7728Z" fill="#212121"/>
</svg>
