<svg width="25" height="26" viewBox="0 0 25 26" fill="none" xmlns="http://www.w3.org/2000/svg">
<path d="M12.4096 0.00444616C12.369 0.0120124 12.3288 0.0222716 12.2894 0.03516C12.0723 0.0852946 11.8788 0.211441 11.7419 0.392103C11.605 0.572766 11.5331 0.796764 11.5385 1.02593V2.0167H2.88462C2.11957 2.0167 1.38585 2.32985 0.844884 2.88727C0.303914 3.44468 0 4.2007 0 4.98901L0 17.869C0 19.5097 1.29231 20.8413 2.88462 20.8413H11.5385V21.2129L6.30962 23.9068C6.07857 24.0217 5.90131 24.2265 5.81683 24.4762C5.73235 24.7258 5.74757 24.9998 5.85913 25.2379C5.9707 25.4759 6.16949 25.6586 6.41175 25.7456C6.65402 25.8327 6.91992 25.817 7.15096 25.702L11.5385 23.4421V23.8136C11.5385 24.0764 11.6398 24.3284 11.8201 24.5142C12.0004 24.7 12.245 24.8044 12.5 24.8044C12.755 24.8044 12.9996 24.7 13.1799 24.5142C13.3602 24.3284 13.4615 24.0764 13.4615 23.8136V23.4421L17.849 25.702C18.0801 25.817 18.346 25.8327 18.5882 25.7456C18.8305 25.6586 19.0293 25.4759 19.1409 25.2379C19.2524 24.9998 19.2677 24.7258 19.1832 24.4762C19.0987 24.2265 18.9214 24.0217 18.6904 23.9068L13.4615 21.2129V20.8413H22.1154C23.7077 20.8413 25 19.5097 25 17.869V4.98901C25 4.2007 24.6961 3.44468 24.1551 2.88727C23.6141 2.32985 22.8804 2.0167 22.1154 2.0167H13.4615V1.02593C13.4664 0.88504 13.442 0.744705 13.39 0.6143C13.338 0.483896 13.2596 0.366425 13.1601 0.269736C13.0605 0.173048 12.942 0.0993674 12.8126 0.0536184C12.6832 0.0078695 12.5458 -0.0088946 12.4096 0.00444616ZM1.92308 4.98901H23.0769V17.869H1.92308V4.98901ZM20.0721 5.97978C19.8567 6.00363 19.6555 6.10174 19.501 6.25818L16.3462 9.50989L14.1529 7.24796C14.0478 7.13691 13.919 7.05281 13.7766 7.00243C13.6343 6.95205 13.4825 6.9368 13.3334 6.95791C13.1843 6.97902 13.0421 7.03589 12.9182 7.12395C12.7944 7.21202 12.6923 7.32881 12.6202 7.46494L9.76538 12.605L8.59327 9.57032C8.53635 9.41363 8.44185 9.27434 8.31858 9.16545C8.19531 9.05655 8.04729 8.9816 7.88831 8.94757C7.72933 8.91354 7.56458 8.92155 7.40942 8.97085C7.25425 9.02015 7.11373 9.10913 7.00096 9.2295L4.11635 12.2018C4.02543 12.2954 3.9533 12.4066 3.90407 12.5289C3.85485 12.6512 3.82949 12.7824 3.82944 12.9148C3.8294 13.0472 3.85467 13.1784 3.90381 13.3008C3.95296 13.4231 4.02501 13.5343 4.11587 13.628C4.20672 13.7217 4.31459 13.796 4.43331 13.8467C4.55204 13.8975 4.6793 13.9236 4.80783 13.9236C4.93636 13.9237 5.06364 13.8976 5.1824 13.847C5.30117 13.7964 5.40908 13.7221 5.5 13.6285L7.33269 11.7401L8.71538 15.2692C8.78064 15.4462 8.89375 15.6002 9.04133 15.7131C9.1889 15.8259 9.36475 15.8928 9.54807 15.9058C9.73138 15.9188 9.91448 15.8774 10.0757 15.7866C10.2369 15.6957 10.3695 15.5592 10.4577 15.3931L13.6731 9.60302L15.6558 11.647C15.7454 11.7426 15.8529 11.8186 15.9716 11.8705C16.0904 11.9224 16.2181 11.9492 16.3471 11.9492C16.4761 11.9492 16.6038 11.9224 16.7226 11.8705C16.8414 11.8186 16.9488 11.7426 17.0385 11.647L20.8846 7.6839C21.0365 7.53901 21.139 7.34748 21.1768 7.13778C21.2146 6.92808 21.1857 6.71142 21.0944 6.51999C21.0031 6.32856 20.8544 6.17259 20.6702 6.07526C20.486 5.97793 20.2762 5.94445 20.0721 5.97978Z" fill="black"/>
</svg>
