<svg width="18" height="20" viewBox="0 0 18 20" fill="none" xmlns="http://www.w3.org/2000/svg">
<path d="M15.6228 10C15.6228 5.99594 12.5495 2.75 8.75823 2.75C7.18449 2.75 5.73443 3.30932 4.57655 4.25H5.2076C5.73051 4.25 6.15443 4.69772 6.15443 5.25C6.15443 5.80228 5.73051 6.25 5.2076 6.25H2.36709C1.84417 6.25 1.42025 5.80228 1.42025 5.25V5H1.38851L1.42025 4.94829V2.25C1.42025 1.69772 1.84417 1.25 2.36709 1.25C2.89001 1.25 3.31392 1.69772 3.31392 2.25V2.75385C4.80874 1.49939 6.70062 0.75 8.75823 0.75C13.5952 0.75 17.5165 4.89137 17.5165 10C17.5165 15.1086 13.5952 19.25 8.75823 19.25C3.9212 19.25 0 15.1086 0 10C0 9.6174 0.0219856 9.2403 0.0647068 8.8699C0.123742 8.3581 0.552933 8 1.04114 8C1.6008 8 2.0042 8.5685 1.93972 9.1556C1.90931 9.4326 1.89367 9.7144 1.89367 10C1.89367 14.0041 4.96704 17.25 8.75823 17.25C12.5495 17.25 15.6228 14.0041 15.6228 10ZM9.70506 6C9.70506 5.44772 9.28117 5 8.75823 5C8.23529 5 7.81139 5.44772 7.81139 6V11C7.81139 11.5523 8.23529 12 8.75823 12H11.5987C12.1217 12 12.5456 11.5523 12.5456 11C12.5456 10.4477 12.1217 10 11.5987 10H9.70506V6Z" fill="black"/>
</svg>
