<svg width="30" height="32" viewBox="0 0 30 32" fill="none" xmlns="http://www.w3.org/2000/svg">
<path d="M14.86 1.02939L14.8817 1.02435L14.903 1.01739C14.9224 1.01103 14.9421 1.00563 14.9619 1.00122C15.0451 0.995987 15.1288 1.00761 15.2083 1.03577C15.2948 1.06638 15.3752 1.11609 15.4435 1.18257C15.512 1.24911 15.5668 1.33091 15.6035 1.42304C15.6402 1.51521 15.6576 1.61496 15.6541 1.71545L15.6538 1.72404V1.73265V2.92305V3.42305H16.1538H26.5385C27.3188 3.42305 28.0704 3.74271 28.6271 4.31703C29.1843 4.89188 29.5 5.67478 29.5 6.49426V21.9695C29.5 23.6795 28.1585 25.0407 26.5385 25.0407H16.1538H15.6538V25.5407V25.9871V26.2918L15.9246 26.4315L22.1992 29.6682L22.1992 29.6682L22.2055 29.6714C22.3616 29.7491 22.486 29.8902 22.5461 30.0681C22.6064 30.2463 22.5953 30.4422 22.5162 30.6112C22.4373 30.7798 22.2991 30.9043 22.1366 30.9627C21.9756 31.0207 21.7994 31.0109 21.6445 30.9347L16.383 28.2211L15.6538 27.8451V28.6655V29.1119C15.6538 29.3 15.5813 29.4773 15.4569 29.6057C15.333 29.7335 15.1683 29.8023 15 29.8023C14.8317 29.8023 14.667 29.7335 14.5431 29.6057C14.4187 29.4773 14.3462 29.3 14.3462 29.1119V28.6655V27.8451L13.617 28.2211L8.3555 30.9346C8.20067 31.0109 8.02438 31.0207 7.86336 30.9627C7.70088 30.9043 7.56272 30.7798 7.48381 30.6112C7.4047 30.4422 7.39364 30.2463 7.45387 30.0681C7.51398 29.8902 7.63841 29.7491 7.7945 29.6714L7.79452 29.6714L7.80076 29.6682L14.0754 26.4315L14.3462 26.2918V25.9871V25.5407V25.0407H13.8462H3.46154C1.8415 25.0407 0.5 23.6795 0.5 21.9695V6.49426C0.5 5.67478 0.815686 4.89188 1.37288 4.31703C1.92957 3.74271 2.68121 3.42305 3.46154 3.42305H13.8462H14.3462V2.92305V1.73265H14.3463L14.346 1.72091C14.3422 1.55708 14.3937 1.39876 14.4889 1.2729L14.0919 0.972318L14.4889 1.2729C14.584 1.14735 14.7158 1.06272 14.86 1.02939ZM2.30769 5.99426H1.80769V6.49426V21.9695V22.4695H2.30769H27.6923H28.1923V21.9695V6.49426V5.99426H27.6923H2.30769ZM24.1417 8.18162L24.1568 8.17993L24.1719 8.17732C24.3071 8.15389 24.4466 8.17585 24.5704 8.24134L24.8042 7.79939L24.5704 8.24134C24.6944 8.30698 24.7976 8.41382 24.8619 8.54869C24.9262 8.68376 24.947 8.83787 24.92 8.98741C24.8931 9.13687 24.8206 9.27087 24.7162 9.37058L24.7092 9.37724L24.7025 9.38416L20.0871 14.1458L20.0871 14.1457L20.0813 14.1519C20.0195 14.2179 19.9463 14.2694 19.8667 14.3043C19.787 14.3391 19.702 14.3568 19.6165 14.3568C19.5311 14.3568 19.4461 14.3391 19.3664 14.3043C19.2867 14.2694 19.2136 14.2179 19.1518 14.1519L19.1518 14.1519L19.146 14.1459L16.7668 11.6901L16.2975 11.2057L15.9704 11.7955L12.112 18.7522L12.1119 18.7521L12.1075 18.7603C12.0456 18.877 11.9539 18.9706 11.8451 19.032C11.7365 19.0933 11.6145 19.1206 11.4932 19.112C11.3718 19.1033 11.2539 19.059 11.1535 18.9821C11.0529 18.9051 10.9738 18.7984 10.9277 18.6731L10.9278 18.6731L10.9241 18.6637L9.26485 14.4235L8.98147 13.6993L8.44021 14.2577L6.2411 16.5265C6.17771 16.5918 6.10331 16.6428 6.02257 16.6773C5.94186 16.7117 5.85595 16.7292 5.76958 16.7292C5.68321 16.7291 5.5973 16.7116 5.51662 16.6771C5.43591 16.6425 5.36154 16.5915 5.29818 16.5261C5.2348 16.4607 5.18373 16.3822 5.14864 16.2947C5.11353 16.2071 5.0953 16.1128 5.09533 16.0172C5.09536 15.9216 5.11366 15.8273 5.14882 15.7399C5.18398 15.6524 5.23509 15.5739 5.29852 15.5085L5.29864 15.5084L8.76018 11.9372L8.76023 11.9372L8.76624 11.9308C8.84395 11.8478 8.93938 11.7878 9.04288 11.7549C9.14628 11.722 9.25563 11.7167 9.36119 11.7393C9.46682 11.762 9.56669 11.8122 9.65104 11.8868C9.73548 11.9614 9.80167 12.0583 9.8419 12.1692L9.84181 12.1692L9.84543 12.1786L11.252 15.8248L11.6369 16.8227L12.1557 15.8874L15.5815 9.71162L15.5816 9.71167L15.5862 9.70282C15.6368 9.6072 15.7076 9.52667 15.7918 9.46673C15.8759 9.40686 15.9714 9.36896 16.0702 9.35494C16.1691 9.34093 16.2699 9.35098 16.365 9.38466C16.4601 9.41836 16.5476 9.47514 16.62 9.55173L16.62 9.55176L16.6243 9.55622L19.2562 12.2739L19.6153 12.6447L19.9745 12.274L23.7571 8.3703C23.7576 8.36984 23.758 8.36938 23.7585 8.36893C23.8645 8.2621 23.9997 8.19736 24.1417 8.18162Z" fill="black" stroke="black"/>
</svg>
